<svg width="20" height="19" viewBox="0 0 20 19" fill="none" xmlns="http://www.w3.org/2000/svg">
<path d="M19.375 9.40946C19.375 4.21276 15.1777 0 10 0C4.82234 0 0.625 4.21276 0.625 9.40946C0.625 13.8223 3.65181 17.525 7.73523 18.5418V12.2848H5.80203V9.40946H7.73523V8.17046C7.73523 4.96778 9.17931 3.48334 12.312 3.48334C12.906 3.48334 13.9308 3.60025 14.35 3.71711V6.32368C14.1288 6.30031 13.7445 6.2886 13.267 6.2886C11.7297 6.2886 11.1358 6.87304 11.1358 8.39256V9.40946H14.198L13.6719 12.2848H11.1358V18.75C15.7778 18.1873 19.375 14.2202 19.375 9.40946H19.375Z" fill="white"/>
</svg>
