<svg width="20" height="19" viewBox="0 0 20 19" fill="none" xmlns="http://www.w3.org/2000/svg">
<path d="M9.99913 6.25128C8.27882 6.25128 6.87492 7.65519 6.87492 9.3755C6.87492 11.0958 8.27882 12.4997 9.99913 12.4997C11.7194 12.4997 13.1234 11.0958 13.1234 9.3755C13.1234 7.65519 11.7194 6.25128 9.99913 6.25128ZM19.3694 9.3755C19.3694 8.08175 19.3812 6.79972 19.3085 5.50831C19.2359 4.00831 18.8937 2.67706 17.7968 1.58019C16.6976 0.48097 15.3687 0.141127 13.8687 0.0684705C12.5749 -0.00418571 11.2929 0.00753307 10.0015 0.00753307C8.70773 0.00753307 7.4257 -0.00418571 6.13429 0.0684705C4.63429 0.141127 3.30304 0.483314 2.20617 1.58019C1.10695 2.67941 0.767103 4.00831 0.694447 5.50831C0.621791 6.80206 0.63351 8.0841 0.63351 9.3755C0.63351 10.6669 0.621791 11.9513 0.694447 13.2427C0.767103 14.7427 1.10929 16.0739 2.20617 17.1708C3.30538 18.27 4.63429 18.6099 6.13429 18.6825C7.42804 18.7552 8.71007 18.7435 10.0015 18.7435C11.2952 18.7435 12.5773 18.7552 13.8687 18.6825C15.3687 18.6099 16.6999 18.2677 17.7968 17.1708C18.896 16.0716 19.2359 14.7427 19.3085 13.2427C19.3835 11.9513 19.3694 10.6693 19.3694 9.3755V9.3755ZM9.99913 14.1825C7.33898 14.1825 5.1921 12.0357 5.1921 9.3755C5.1921 6.71535 7.33898 4.56847 9.99913 4.56847C12.6593 4.56847 14.8062 6.71535 14.8062 9.3755C14.8062 12.0357 12.6593 14.1825 9.99913 14.1825ZM15.003 5.49425C14.3819 5.49425 13.8804 4.99269 13.8804 4.3716C13.8804 3.7505 14.3819 3.24894 15.003 3.24894C15.6241 3.24894 16.1257 3.7505 16.1257 4.3716C16.1259 4.51908 16.097 4.66515 16.0406 4.80144C15.9843 4.93773 15.9016 5.06156 15.7973 5.16585C15.693 5.27013 15.5692 5.35282 15.4329 5.40917C15.2966 5.46553 15.1505 5.49444 15.003 5.49425V5.49425Z" fill="white"/>
</svg>
