<svg width="20" height="19" viewBox="0 0 20 19" fill="none" xmlns="http://www.w3.org/2000/svg">
<path d="M18.625 0H1.375C0.960156 0 0.625 0.335156 0.625 0.75V18C0.625 18.4148 0.960156 18.75 1.375 18.75H18.625C19.0398 18.75 19.375 18.4148 19.375 18V0.75C19.375 0.335156 19.0398 0 18.625 0ZM6.18672 15.9773H3.40469V7.02891H6.18672V15.9773ZM4.79688 5.80547C4.47795 5.80547 4.16619 5.7109 3.90102 5.53371C3.63584 5.35653 3.42917 5.10469 3.30712 4.81005C3.18507 4.5154 3.15314 4.19118 3.21536 3.87839C3.27758 3.56559 3.43115 3.27827 3.65667 3.05276C3.88218 2.82725 4.1695 2.67367 4.48229 2.61145C4.79509 2.54923 5.11931 2.58117 5.41395 2.70321C5.7086 2.82526 5.96044 3.03194 6.13762 3.29711C6.3148 3.56229 6.40937 3.87405 6.40937 4.19297C6.40703 5.08359 5.68516 5.80547 4.79688 5.80547ZM16.6023 15.9773H13.8227V11.625C13.8227 10.5867 13.8039 9.25312 12.3766 9.25312C10.9305 9.25312 10.7078 10.3828 10.7078 11.55V15.9773H7.93047V7.02891H10.5977V8.25234H10.6352C11.0055 7.54922 11.9125 6.80625 13.2672 6.80625C16.0844 6.80625 16.6023 8.66016 16.6023 11.0695V15.9773V15.9773Z" fill="white"/>
</svg>
