<svg width="40" height="40" viewBox="0 0 40 40" fill="none" xmlns="http://www.w3.org/2000/svg">
<path d="M10.5998 4.72036H25.559C25.9996 4.72036 26.359 4.36099 26.359 3.92036C26.359 3.47972 25.9996 3.12036 25.559 3.12036H10.5998C10.1592 3.12036 9.7998 3.47974 9.7998 3.92036C9.7998 4.35944 10.1592 4.72036 10.5998 4.72036Z" fill="black"/>
<path d="M27.1592 32.8C26.7998 32.4406 26.2795 32.4797 25.9998 32.8C25.7201 33.1203 25.7592 33.6407 26.0795 33.9203L27.3998 35.0797H14.5998C14.1592 35.0797 13.7998 35.4391 13.7998 35.8797C13.7998 36.3203 14.1592 36.6797 14.5998 36.6797H27.3998L26.0795 37.8391C25.7592 38.1187 25.7201 38.6391 25.9998 38.9594C26.1592 39.1594 26.3998 39.2391 26.5998 39.2391C26.7998 39.2391 26.9592 39.1594 27.1201 39.0391L30.0795 36.4797C30.0795 36.4797 30.6795 35.9203 30.1201 35.3594L27.1592 32.8Z" fill="black"/>
<path d="M34.2404 10.3203C34.1201 9.8797 33.7201 9.56098 33.2811 9.64066C32.8404 9.72035 32.5607 10.1203 32.6404 10.561C32.7201 11.0016 32.7607 11.4407 32.7607 11.9203C32.7607 15.8797 29.5201 19.1203 25.5607 19.1203C25.1201 19.1203 24.7607 19.4797 24.7607 19.9203C24.7607 20.361 25.1201 20.7203 25.5607 20.7203C30.4015 20.7203 34.3607 16.761 34.3607 11.9203C34.3592 11.3594 34.3201 10.8407 34.2404 10.3203Z" fill="black"/>
<path d="M14.5588 20.7204C14.9994 20.7204 15.3588 20.361 15.3588 19.9204C15.3588 19.4797 14.9994 19.1204 14.5588 19.1204C9.71799 19.1204 5.75879 23.0797 5.75879 27.9204C5.75879 28.4797 5.79941 29 5.8791 29.5204C5.95879 29.9204 6.2791 30.2 6.6791 30.2H6.83848C7.27912 30.1204 7.5588 29.7204 7.47912 29.2797C7.39943 28.8391 7.35881 28.4 7.35881 27.9204C7.35881 23.9594 10.5994 20.7204 14.5588 20.7204Z" fill="black"/>
<path d="M8.64063 0.399902H1.64062V7.3999H8.64063V0.399902ZM7.24063 5.9999H3.04063V1.7999H7.24063V5.9999Z" fill="black"/>
<path d="M23.5203 23.2407V16.2407H16.4795V23.2407H23.5203ZM17.9203 17.6407H22.1203V21.8407H17.9203V17.6407Z" fill="black"/>
<path d="M34.2793 1.19995H27.2793V8.19995H34.2793V1.19995ZM32.8793 6.79995H28.6793V2.59995H32.8793V6.79995Z" fill="black"/>
<path d="M5.59961 38.3203H12.5996V31.3203H5.59961V38.3203ZM6.99961 32.7203H11.1996V36.9203H6.99961V32.7203Z" fill="black"/>
<path d="M31.3999 38.7202H38.3999V31.7202H31.3999V38.7202ZM32.7999 33.1202H36.9999V37.3202H32.7999V33.1202Z" fill="black"/>
</svg>
