<?xml version="1.0" encoding="UTF-8"?>
<svg id="Layer_2" data-name="Layer 2" xmlns="http://www.w3.org/2000/svg" viewBox="0 0 720.43 722.88">
  <g id="Layer_1-2" data-name="Layer 1">
    <g>
      <path d="M686.76,722.88l-574.07-.55c-37.26-.04-64.41-33.61-66.89-67.35-18.86-.06-34.23-9.4-41.56-24.52-8.12-16.76-4.17-35.6,8.62-48.36-17.19-17.44-16.94-43.42-.01-61.01-12.77-12.92-16.67-31.7-8.5-48.48,7.22-14.82,22.6-25.16,41.51-23.57l-.22-116.13c-.07-38,27.42-71.49,66.61-73.58,21.35-1.14,42.01-.57,63.69-.38l.38-32.04C177.8,98.79,285.39-1.19,411.12.01c126.25,1.21,230.48,103.09,230.73,231.85l.44,226.28c.07,37.35,25.12,68.75,58.37,82.19,11.55,4.67,18.04,12.61,19.5,23.35,1.55,11.4-3.83,23.83-15.11,29.08l-19.81,9.23c7.62,17.51,13.84,35.42,14.04,54l.59,55.17c.06,5.83-4.49,11.73-13.12,11.72ZM570.87,535.79c36.19,10.1,71.57,19.17,99.52,46.3l25.39-9.27c1.25-.46,2.91-5.76,2.1-6.81s-3.37-3.42-4.69-3.97c-40.87-16.92-73.32-54.98-73.38-101.45l-.28-224.04c-.15-122.7-100.15-219.3-220.48-213.5-120.97,5.84-212.68,111.89-198.99,235.56l36.34.46c-4.38-54.62,39.69-101.85,95.08-99.35,50.3,25.54,99.36,46.85,152.01,64.04,29.16,8.74,56.51,15.43,87.22,16.58,5.12.19,11.43,4.39,11.41,10.5-.18,71.21-35.25,137.03-94.18,176.27l.94,42.31c.9,40.52,45.95,56.29,82,66.35ZM473.36,409.05c51.14-32.14,81.5-87.28,85.71-146.23-80.56-8.79-160.59-44.79-233.11-80.41-40.51.7-70.77,36.75-66.91,76.23l23.55.42c37.71.67,67.37,34.15,67.41,71.68l.08,80.69c38.29,23.97,83.58,22.55,123.27-2.39ZM120.37,700.07l154.97.03c27.27,0,51.72-18.96,51.74-48.39l.25-318.57c.02-27.03-19.21-51.34-47.53-51.4l-160.36-.36c-30-.07-51.17,22.49-51.11,51.75l.25,115.8c19.66-1.13,35.05,9.5,41.79,24.42,7.53,16.67,3.73,34.17-9.07,48.05,17.54,17.98,17.06,43.88-.49,60.67,13.27,12.56,17.05,31.2,9.56,47.8-6.78,15.01-22.18,25.21-41.68,24.39,2.28,27.06,23.71,45.8,51.67,45.81ZM466.67,474.56l-2.27-35.46c-35.78,16.64-75.28,16.41-111.21-.18.38,14.76-2.29,28.43-2.35,43.03l-.65,153.46c79.84,30.14,168.01-4.73,206.15-79.97-42.31-10.84-86.87-37.18-89.67-80.87ZM71.92,509.82c11.1-.05,18.56-7.8,19.41-17.56.65-7.53-4.71-19.05-14.65-19.82-13.1-1.02-26.83-.95-39.93.17-10.66.91-15.13,13.41-13.6,21.5,1.78,9.47,10,15.89,20.5,15.85l28.27-.12ZM69.66,570.85c12.81.05,21.67-7.15,21.69-19.35.02-10.01-7.66-19.03-19.49-19.04l-30.01-.02c-11.02,0-19.08,9.35-19.13,19.12s8.06,19.15,19.07,19.19l27.86.1ZM676.64,699.99l-.76-49.68c-.5-32.38-20.68-56.88-48.93-71.65l-48.47-16.89c-41.49,86.75-139.02,127.22-229.32,97.57-1.34,15.3-7.95,27.69-17.94,40.62l345.41.03ZM74.62,631.23c10.97.16,17.33-11.27,16.6-20.38-.75-9.43-8.09-17.54-19.31-17.46l-32.82.24c-8.21.06-15.87,10.62-16.3,17.24-.49,7.55,4.74,19.69,13.75,19.82l38.08.55Z"/>
      <path d="M231.98,384.2c0,18.86-15.29,34.14-34.14,34.14s-34.14-15.29-34.14-34.14,15.29-34.14,34.14-34.14,34.14,15.29,34.14,34.14ZM209.31,384.23c0-6.33-5.13-11.47-11.47-11.47s-11.47,5.13-11.47,11.47,5.13,11.47,11.47,11.47,11.47-5.13,11.47-11.47Z"/>
    </g>
  </g>
</svg>