<svg width="54" height="41" viewBox="0 0 54 41" fill="none" xmlns="http://www.w3.org/2000/svg">
<path d="M20.7242 9.15971H24.9949C25.3485 9.15971 25.6353 8.8737 25.6353 8.52101V4.26099C25.6353 3.90832 25.3485 3.62229 24.9949 3.62229H20.7242C20.3706 3.62229 20.0839 3.90829 20.0839 4.26099V8.52101C20.0882 8.87367 20.3706 9.15971 20.7242 9.15971ZM21.3645 4.89754H24.3611V7.88665H21.3645V4.89754ZM28.3411 9.15971H32.6118C32.9654 9.15971 33.2521 8.8737 33.2521 8.52101V4.26099C33.2521 3.90832 32.9654 3.62229 32.6118 3.62229H28.3411C27.9875 3.62229 27.7007 3.90829 27.7007 4.26099V8.52101C27.7007 8.87367 27.9875 9.15971 28.3411 9.15971ZM28.9749 4.89754H31.9715V7.88665H28.9749V4.89754ZM20.7245 16.4087H24.9953C25.3488 16.4087 25.6356 16.1227 25.6356 15.77V11.51C25.6356 11.1573 25.3489 10.8713 24.9953 10.8713H20.7245C20.371 10.8713 20.0842 11.1573 20.0842 11.51V15.77C20.0885 16.1227 20.3709 16.4087 20.7245 16.4087ZM21.3648 12.1487H24.3615V15.1378H21.3648V12.1487ZM28.3414 16.4087H32.6121C32.9657 16.4087 33.2525 16.1227 33.2525 15.77V11.51C33.2525 11.1573 32.9657 10.8713 32.6121 10.8713H28.3414C27.9878 10.8713 27.7011 11.1573 27.7011 11.51V15.77C27.7011 16.1227 27.9878 16.4087 28.3414 16.4087ZM28.9752 12.1487H31.9718V15.1378H28.9752V12.1487ZM20.7248 23.6599H24.9956C25.3492 23.6599 25.6359 23.3739 25.6359 23.0212V18.7612C25.6359 18.4085 25.3492 18.1225 24.9956 18.1225H20.7248C20.3713 18.1225 20.0845 18.4085 20.0845 18.7612V23.0212C20.0888 23.3739 20.3713 23.6599 20.7248 23.6599ZM21.3652 19.3934H24.3618V22.3825H21.3652V19.3934ZM28.3417 23.6599H32.6125C32.966 23.6599 33.2528 23.3739 33.2528 23.0212V18.7612C33.2528 18.4085 32.9661 18.1225 32.6125 18.1225H28.3417C27.9882 18.1225 27.7014 18.4085 27.7014 18.7612V23.0212C27.7014 23.3739 27.9881 23.6599 28.3417 23.6599ZM28.9755 19.3934H31.9722V22.3825H28.9755V19.3934ZM53.2806 30.898C53.5673 26.9455 52.6726 23.9781 50.8855 22.9585C50.6871 22.8489 50.45 22.8489 50.2517 22.9585C48.4645 23.9779 47.5698 26.9433 47.8565 30.898C47.973 32.5001 48.9388 33.2054 49.9326 33.3646V36.773H46.6881L46.6859 14.2621C46.6859 13.7223 46.244 13.2815 45.7029 13.2815H37.0921L37.0943 2.03015C37.0943 1.13343 36.3613 0.400146 35.4602 0.400146H17.8557C16.9567 0.400146 16.2216 1.13128 16.2216 2.03015V5.84503H7.6456C7.0937 5.84503 6.64743 6.29017 6.64743 6.84068V36.7659H3.40072V33.3575C4.39458 33.1983 5.3604 32.4994 5.4768 30.8909C5.76353 26.9384 4.86883 23.971 3.08167 22.9514C2.88332 22.8418 2.64618 22.8418 2.44787 22.9514C0.660649 23.9708 -0.234035 26.9362 0.0527323 30.8909C0.16915 32.4994 1.13495 33.1983 2.12881 33.3575V36.7659H1.95419C0.949563 36.7659 0.132476 37.5809 0.132476 38.583C0.132476 39.5851 0.949563 40.4001 1.95419 40.4001H51.3817C52.3864 40.4001 53.2034 39.5851 53.2034 38.583C53.2034 37.5809 52.3864 36.7659 51.3817 36.7659H51.2114V33.3575C52.201 33.2048 53.1668 32.5059 53.2811 30.8973L53.2806 30.898ZM1.32425 30.8098C1.05908 27.1713 1.87615 25.1005 2.76438 24.3028C3.65261 25.107 4.46964 27.1758 4.20451 30.8098C4.13768 31.7453 3.66985 32.1925 2.80754 32.1302H2.71915C1.86541 32.1925 1.39109 31.7474 1.32425 30.8098ZM45.416 14.5588V36.773H37.105V34.9128H42.7686C43.1221 34.9128 43.4089 34.6268 43.4089 34.2741V30.6851C43.4089 30.3324 43.1222 30.0464 42.7686 30.0464H37.105V28.0916H42.7686C43.1221 28.0916 43.4089 27.8056 43.4089 27.4529L43.4067 23.8746C43.4067 23.5219 43.12 23.2359 42.7664 23.2359H37.105V21.2812H42.7686C43.1222 21.2812 43.4089 20.9951 43.4089 20.6425V17.0534C43.4089 16.7007 43.1222 16.4147 42.7686 16.4147H37.105V14.5546H45.4161L45.416 14.5588ZM37.105 33.6395V31.3213H42.1325V33.6395H37.105ZM37.105 26.8247V24.5065H42.1325V26.8247H37.105ZM37.105 20.0099V17.6918H42.1325V20.0099H37.105ZM17.8663 1.67735H35.4708C35.6648 1.67735 35.8287 1.84294 35.8287 2.03433V36.7765H30.2948V28.6455C30.2948 27.809 29.6114 27.1208 28.7663 27.1208H24.5602C23.7216 27.1208 23.0317 27.8025 23.0317 28.6455V36.7721H17.5061V2.02992C17.5061 1.83638 17.6723 1.67735 17.8663 1.67735ZM29.0208 36.7724H24.3124V28.6458C24.3124 28.5081 24.4288 28.392 24.5603 28.392H28.7664C28.9044 28.392 29.0143 28.5081 29.0143 28.6458V36.7724H29.0208ZM16.2322 13.1929H11.2047V10.8748H16.2322V13.1929ZM16.2322 20.0099H11.2047V17.6918H16.2322V20.0099ZM16.2322 26.8247H11.2047V24.5065H16.2322V26.8247ZM16.2322 33.6395H11.2047V31.3213H16.2322V33.6395ZM7.92111 7.11585H16.2322V9.60388H10.5686C10.215 9.60388 9.92825 9.88989 9.92825 10.2426V13.8316C9.92825 14.1843 10.215 14.4703 10.5686 14.4703H16.2322V16.4251H10.5686C10.215 16.4251 9.92825 16.7111 9.92825 17.0638V20.6529C9.92825 21.0055 10.215 21.2916 10.5686 21.2916H16.2322V23.2463H10.5686C10.215 23.2463 9.92825 23.5323 9.92825 23.885V27.4741C9.92825 27.8267 10.215 28.1128 10.5686 28.1128H16.2322V30.0675H10.5686C10.215 30.0675 9.92825 30.3535 9.92825 30.7062V34.2953C9.92825 34.6479 10.215 34.934 10.5686 34.934H16.2322V36.7941H7.92111V7.11585ZM51.9285 38.5897C51.9285 38.8929 51.6805 39.1337 51.383 39.1337H1.95382C1.64984 39.1337 1.40839 38.8864 1.40839 38.5897C1.40839 38.2864 1.65631 38.0456 1.95382 38.0456H51.3814C51.6853 38.0434 51.9285 38.2907 51.9285 38.5897ZM49.1302 30.8093C48.865 27.1707 49.6821 25.0999 50.5703 24.3022C51.4585 25.1065 52.2755 27.1752 52.0104 30.8093C51.9436 31.7447 51.4758 32.192 50.6134 32.1296H50.5703H50.5272C49.6713 32.192 49.2013 31.7468 49.1302 30.8093Z" fill="black"/>
</svg>
