<svg width="40" height="40" viewBox="0 0 40 40" fill="none" xmlns="http://www.w3.org/2000/svg">
<g clip-path="url(#clip0_5078_1825)">
<path d="M30.3998 0H9.44064C9.20002 0 9 0.2 9 0.44064V29.0814C9 29.3221 9.2 29.5221 9.44064 29.5221H18.1202V33.7629H16.5609C16.3203 33.7629 16.1202 33.9629 16.1202 34.2035V35.9238L13.9202 35.9207C13.6796 35.9207 13.4796 36.1207 13.4796 36.3614V39.1614C13.4796 39.402 13.6796 39.602 13.9202 39.602L25.9202 39.6004C26.1609 39.6004 26.3609 39.4004 26.3609 39.1598V36.3598C26.3609 36.1192 26.1609 35.9192 25.9202 35.9192H23.7202V34.2004C23.7202 33.9598 23.5202 33.7598 23.2796 33.7598H21.7202V29.5206H30.3998C30.6405 29.5206 30.8405 29.3206 30.8405 29.0799V0.440712C30.8405 0.200088 30.6405 0 30.3998 0ZM25.4794 36.8V38.7203H14.3606V36.8H25.4794ZM22.8404 34.6406V35.9203H16.9996V34.6406H22.8404ZM18.9997 33.7594V29.5202H20.8404V33.761L18.9997 33.7594ZM29.9605 28.6406H9.87932V0.8798H29.9589L29.9605 28.6406ZM11.6401 27.3203H28.1993C28.4399 27.3203 28.64 27.1203 28.64 26.8796V2.64044C28.64 2.39982 28.44 2.1998 28.1993 2.1998H11.6401C11.3995 2.1998 11.1995 2.3998 11.1995 2.64044V26.8812C11.1995 27.1203 11.3995 27.3203 11.6401 27.3203ZM12.0792 3.07948H27.7588V26.4387L12.0792 26.4402V3.07948Z" fill="black"/>
</g>
<defs>
<clipPath id="clip0_5078_1825">
<rect width="39.8405" height="39.602" fill="white"/>
</clipPath>
</defs>
</svg>
