<svg width="40" height="40" viewBox="0 0 40 40" fill="none" xmlns="http://www.w3.org/2000/svg">
<path d="M6.40005 2.80011C6.18598 2.80636 6.06411 2.94386 6.01255 3.10011L5.21255 6.30011C5.15161 6.53605 5.3563 6.80011 5.60005 6.80011H7.45005L6.48757 10.0001H4.00005C3.34225 10.0001 2.80005 10.5423 2.80005 11.2001V26.4001C2.80005 27.0579 3.34225 27.6001 4.00005 27.6001H17.5376V36.8001C17.5376 37.0204 17.7173 37.2001 17.9376 37.2001H21.9376C22.158 37.2001 22.3376 37.0204 22.3376 36.8001V27.6001H36C36.6578 27.6001 37.2 27.0579 37.2 26.4001V11.2001C37.2 10.5423 36.6578 10.0001 36 10.0001H31.3376L32.3001 6.80011H34.4001C34.5798 6.80011 34.7486 6.66261 34.7876 6.48761L35.5876 3.28761C35.6392 3.0548 35.4376 2.80169 35.2001 2.80009H30.4001C30.1861 2.80634 30.0642 2.94384 30.0126 3.10009L29.2126 6.30009C29.1517 6.53603 29.3564 6.80009 29.6001 6.80009H31.4501L30.4876 10.0001H19.3L20.2625 6.80009H22.3625C22.5422 6.80009 22.711 6.66259 22.75 6.48759L23.55 3.28759C23.6016 3.05478 23.4 2.80167 23.1625 2.80007H18.3625C18.1485 2.80632 18.0266 2.94382 17.975 3.10007L17.175 6.30007C17.1141 6.536 17.3188 6.80007 17.5625 6.80007H19.4125L18.45 10.0001H7.33765L8.30013 6.80007H10.4001C10.5798 6.80007 10.7486 6.66257 10.7876 6.48757L11.5876 3.28757C11.6392 3.05476 11.4376 2.80165 11.2001 2.80005L6.40005 2.80011ZM6.71255 3.60011H10.6875L10.0875 6.00011H6.11255L6.71255 3.60011ZM18.6749 3.60011H22.6499L22.0499 6.00011H18.0749L18.6749 3.60011ZM30.7125 3.60011H34.6875L34.0875 6.00011H30.1125L30.7125 3.60011ZM4.00015 10.8001H36.0002C36.2283 10.8001 36.4002 10.972 36.4002 11.2001V26.4001C36.4002 26.6282 36.2283 26.8001 36.0002 26.8001H4.00015C3.77202 26.8001 3.60015 26.6282 3.60015 26.4001V11.2001C3.60015 10.972 3.77202 10.8001 4.00015 10.8001ZM18.3377 27.6001H21.5377V36.4001H18.3377V27.6001Z" fill="black"/>
</svg>
