<svg width="40" height="40" viewBox="0 0 40 40" fill="none" xmlns="http://www.w3.org/2000/svg">
<path d="M34.4436 16.778V15.5561C34.4436 7.58895 27.9656 1.11255 20 1.11255C12.0328 1.11099 5.55639 7.58895 5.55639 15.5561V16.778C3.02359 17.2889 1.11279 19.5343 1.11279 22.2216V27.778C1.11279 30.8452 3.60187 33.3344 6.66919 33.3344H8.89107C10.7239 33.3344 12.2239 31.8344 12.2239 30.0016V20.0016C12.2239 18.1688 10.7239 16.6688 8.89107 16.6688H7.78015V15.5579C7.78015 8.81431 13.2582 3.33591 20.0022 3.33591C26.7462 3.33591 32.2242 8.81391 32.2242 15.5579V16.6688H31.1132C29.2804 16.6688 27.7804 18.1688 27.7804 20.0016V30.0016C27.7804 31.8344 29.2804 33.3344 31.1132 33.3344V35.5563C31.1132 36.1672 30.6132 36.6672 30.0023 36.6672H20.0023C19.3914 36.6672 18.8914 37.1672 18.8914 37.7781C18.8914 38.3891 19.3914 38.8891 20.0023 38.8891H30.0023C31.8351 38.8891 33.3351 37.3891 33.3351 35.5563V33.3344C36.4023 33.3344 38.8915 30.8453 38.8915 27.778V22.2216C38.8915 19.5435 36.9806 17.2996 34.4479 16.778L34.4436 16.778ZM9.99999 19.9999V29.9999C9.99999 30.6108 9.49999 31.1108 8.88907 31.1108H6.66719C4.83439 31.1108 3.33439 29.6108 3.33439 27.778V22.2216C3.33439 20.3888 4.83439 18.8888 6.66719 18.8888H8.88907C9.49999 18.8888 9.99999 19.389 9.99999 19.9999ZM36.6672 27.7779C36.6672 29.6107 35.1672 31.1107 33.3344 31.1107H31.1125C30.5016 31.1107 30.0016 30.6107 30.0016 29.9998V19.9998C30.0016 19.3889 30.5016 18.8889 31.1125 18.8889H33.3344C35.1672 18.8889 36.6672 20.3889 36.6672 22.2217V27.7779Z" fill="black"/>
</svg>
