<svg width="48" height="49" viewBox="0 0 48 49" fill="none" xmlns="http://www.w3.org/2000/svg">
<path d="M12.1573 25.6384H6.93991C6.5751 25.6384 6.26123 25.9523 6.26123 26.3171V39.4138C6.26123 39.7786 6.57509 40.0925 6.93991 40.0925H12.1573C12.5221 40.0925 12.836 39.7786 12.836 39.4138V26.3171C12.836 25.9523 12.5221 25.6384 12.1573 25.6384ZM11.4786 38.7351H7.61859V26.996H11.4786V38.7351Z" fill="black"/>
<path d="M21.8092 19.9526H16.5918C16.227 19.9526 15.9131 20.2665 15.9131 20.6313V39.4672C15.9131 39.832 16.2269 40.1459 16.5918 40.1459H21.8092C22.174 40.1459 22.4878 39.832 22.4878 39.4672V20.6313C22.4878 20.2645 22.174 19.9526 21.8092 19.9526ZM21.1305 38.7353H17.2704V21.3081H21.1305V38.7353Z" fill="black"/>
<path d="M31.461 25.6384H26.2436C25.8788 25.6384 25.5649 25.9523 25.5649 26.3171V39.4138C25.5649 39.7786 25.8788 40.0925 26.2436 40.0925H31.461C31.8258 40.0925 32.1397 39.7786 32.1397 39.4138V26.3171C32.1397 25.9523 31.8258 25.6384 31.461 25.6384ZM30.7294 38.7351H26.8693V26.996H30.7294V38.7351Z" fill="black"/>
<path d="M41.0606 19.9526H35.8432C35.4784 19.9526 35.1646 20.2665 35.1646 20.6313V39.4672C35.1646 39.832 35.4784 40.1459 35.8432 40.1459H41.0606C41.4254 40.1459 41.7393 39.832 41.7393 39.4672V20.6313C41.7393 20.2645 41.4784 19.9526 41.0606 19.9526ZM40.3819 38.7353H36.5219V21.3081H40.3819V38.7353Z" fill="black"/>
<path d="M35.8961 14.8921C36.5217 15.5708 37.4613 15.9886 38.4518 15.9886C40.4348 15.9886 42 14.3703 42 12.4403C42 10.5083 40.4348 8.83911 38.4518 8.83911C36.4687 8.83911 34.9035 10.4573 34.9035 12.3874C34.9035 12.8561 35.0074 13.2739 35.1644 13.6917L31.4083 16.1435C30.7826 15.4648 29.843 15.047 28.8526 15.047C27.8621 15.047 26.9226 15.4648 26.2969 16.1435L22.5408 13.7426C22.6977 13.3248 22.8016 12.907 22.8016 12.4383C22.8016 10.4553 21.1834 8.89003 19.2534 8.89003C17.2704 8.89003 15.7051 10.5083 15.7051 12.4383C15.7051 12.907 15.8091 13.3248 15.966 13.7426L12.1039 16.1435C11.4783 15.4648 10.5387 15.047 9.54825 15.047C7.56522 15.047 6 16.6652 6 18.5952C6 20.5783 7.61823 22.1435 9.54825 22.1435C11.4783 22.1435 13.0965 20.5253 13.0965 18.5952C13.0965 18.1265 12.9926 17.7087 12.8356 17.2909L16.5917 14.89C17.2174 15.5687 18.157 15.9865 19.1474 15.9865C20.1379 15.9865 21.0774 15.5687 21.7031 14.89L25.4592 17.2909C25.3023 17.7087 25.1984 18.1265 25.1984 18.5952C25.1984 20.5783 26.8166 22.1435 28.7466 22.1435C30.7296 22.1435 32.2949 20.5253 32.2949 18.5952C32.2949 18.1265 32.1909 17.7087 32.034 17.2909L35.8961 14.8921ZM38.4518 10.2474C39.6522 10.2474 40.6426 11.2379 40.6426 12.4383C40.6426 13.6387 39.6522 14.6292 38.4518 14.6292C37.2513 14.6292 36.2609 13.6387 36.2609 12.4383C36.2609 11.2399 37.2513 10.2474 38.4518 10.2474ZM9.5484 20.786C8.34799 20.786 7.35751 19.7955 7.35751 18.5951C7.35751 17.3947 8.34799 16.4042 9.5484 16.4042C10.7488 16.4042 11.7393 17.3947 11.7393 18.5951C11.7393 19.7955 10.7488 20.786 9.5484 20.786ZM19.2006 14.6311C18.0002 14.6311 17.0097 13.6406 17.0097 12.4402C17.0097 11.2397 18.0002 10.2493 19.2006 10.2493C20.401 10.2493 21.3915 11.2397 21.3915 12.4402C21.3915 13.6385 20.401 14.6311 19.2006 14.6311ZM28.7996 20.786C27.5991 20.786 26.6087 19.7955 26.6087 18.5951C26.6087 17.3947 27.5991 16.4042 28.7996 16.4042C30 16.4042 30.9905 17.3947 30.9905 18.5951C30.9905 19.7955 30.0529 20.786 28.7996 20.786Z" fill="black"/>
</svg>
