<svg width="40" height="40" viewBox="0 0 40 40" fill="none" xmlns="http://www.w3.org/2000/svg">
<path d="M35.7063 4.99512H4.29386C3.00166 4.99668 1.95322 6.04512 1.95166 7.33888V27.5593C1.95322 28.853 3.00166 29.9015 4.29386 29.903H15.8063L14.3172 33.589L11.3015 33.5874C10.9172 33.5968 10.6109 33.9108 10.6109 34.2952C10.6109 34.6796 10.9171 34.9936 11.3015 35.003H28.6983C29.0827 34.9936 29.389 34.6796 29.389 34.2952C29.389 33.9108 29.0827 33.5968 28.6983 33.5874H25.6843L24.1952 29.9015L35.706 29.903C36.9982 29.9015 38.0466 28.853 38.0482 27.5593V7.33888C38.0466 6.04512 36.9985 4.99668 35.7063 4.99512ZM4.29386 6.41076H35.7063C36.2172 6.41232 36.6328 6.8264 36.6328 7.33888V24.6781H3.36722V7.33888C3.36722 6.8264 3.78294 6.41232 4.29386 6.41076ZM24.1563 33.5888H15.8439L17.3329 29.9028H22.6673L24.1563 33.5888ZM35.7063 28.4872H4.29386C3.78294 28.4856 3.3673 28.0715 3.3673 27.559V26.0934H36.6329V27.559C36.6329 28.0715 36.2172 28.4856 35.7063 28.4872ZM5.57186 21.1964C5.57186 20.8057 5.88905 20.4886 6.27966 20.4886H16.8765V9.89176C16.8843 9.50738 17.1999 9.20112 17.5843 9.20112C17.9686 9.20112 18.2827 9.50737 18.2921 9.89176V21.1966C18.2921 21.3841 18.2171 21.5637 18.0842 21.6966C17.9514 21.8294 17.7717 21.9044 17.5842 21.9044H6.27945C6.09195 21.9044 5.91226 21.8294 5.77945 21.6966C5.64664 21.5637 5.57186 21.3839 5.57186 21.1964ZM5.90624 18.3729L8.70156 14.5636V14.562C8.83437 14.3823 9.04374 14.2745 9.2672 14.2729C9.49063 14.2698 9.70312 14.3745 9.83752 14.5542L11.9328 17.3323L12.5735 16.7792C12.8672 16.5261 13.311 16.5573 13.5672 16.8495L14.8579 18.3245C14.986 18.4651 15.0532 18.6511 15.0423 18.8417C15.0313 19.0308 14.9438 19.2089 14.8016 19.3339C14.6579 19.4589 14.4704 19.5214 14.2797 19.5073C14.0907 19.4933 13.9141 19.4026 13.7922 19.2558L12.9641 18.3089L12.2844 18.8964C12.136 19.0245 11.9407 19.0839 11.7469 19.0636C11.5532 19.0433 11.375 18.9417 11.2578 18.787L9.27971 16.1667L7.04691 19.2105C6.81566 19.5245 6.37191 19.5933 6.05783 19.362C5.7422 19.1308 5.67499 18.687 5.90624 18.3729ZM13.4954 14.7807C14.3282 14.7823 15.0814 14.2792 15.4001 13.5088C15.7189 12.7401 15.5423 11.8526 14.9532 11.2635C14.3642 10.6729 13.4782 10.4963 12.7079 10.8151C11.9376 11.1338 11.4345 11.8854 11.4345 12.7198C11.4345 13.8573 12.358 14.7807 13.4954 14.7807ZM13.4954 12.0745C13.7564 12.0745 13.9923 12.2323 14.0923 12.4729C14.1923 12.7151 14.1361 12.9932 13.9517 13.1776C13.7673 13.362 13.4892 13.4167 13.2486 13.3167C13.0064 13.2167 12.8501 12.9807 12.8501 12.7198C12.8517 12.3635 13.1392 12.076 13.4954 12.0745ZM21.0158 12.9745H23.3877C23.5752 12.9745 23.7565 12.8995 23.8893 12.7667C24.0221 12.6339 24.0955 12.4542 24.0955 12.2651V9.89167C24.0955 9.70417 24.0205 9.52448 23.8893 9.39167C23.7565 9.25885 23.5752 9.18385 23.3877 9.18385H21.0127C20.6221 9.18385 20.3065 9.50104 20.3065 9.89165V12.2667V12.2651C20.3065 12.4542 20.3799 12.6338 20.5127 12.7667C20.6455 12.8995 20.8252 12.9745 21.0127 12.9745L21.0158 12.9745ZM21.7205 10.5995H22.6799V11.5588H21.7205V10.5995ZM21.0127 17.4403H23.3877C23.7783 17.4387 24.0955 17.1231 24.0955 16.7309V14.3575C24.0955 14.17 24.0205 13.9887 23.8893 13.8559C23.7565 13.7231 23.5752 13.6497 23.3877 13.6497H21.0127C20.6221 13.6497 20.3065 13.9653 20.3065 14.3575V16.7325V16.7309C20.3065 16.9184 20.3799 17.0997 20.5127 17.2325C20.6455 17.3653 20.8252 17.4403 21.0127 17.4403ZM21.7205 15.0653H22.6799V16.0246H21.7205V15.0653ZM21.0127 21.9061L23.3877 21.9045C23.5752 21.9045 23.7565 21.8311 23.8893 21.6983C24.0205 21.5655 24.0955 21.3858 24.0955 21.1967V18.8217C24.0955 18.6342 24.0221 18.4545 23.8893 18.3217C23.7565 18.1889 23.5752 18.1139 23.3877 18.1139H21.0127C20.8252 18.1139 20.6455 18.1889 20.5127 18.3217C20.3799 18.4545 20.3065 18.6342 20.3065 18.8217V21.1967C20.3065 21.3842 20.3799 21.5639 20.5127 21.6967C20.6455 21.8295 20.8252 21.9045 21.0127 21.9045V21.9061ZM21.7205 19.5311H22.6799V20.4904H21.7205V19.5311ZM26.1113 11.0795C26.1113 10.892 26.1863 10.7123 26.3191 10.5795C26.4519 10.4467 26.6316 10.3717 26.8191 10.3717H33.7207C34.1051 10.381 34.4114 10.6951 34.4114 11.0795C34.4114 11.4638 34.1051 11.7779 33.7207 11.7873H26.8191C26.6316 11.7873 26.4519 11.7138 26.3191 11.581C26.1863 11.4482 26.1113 11.267 26.1113 11.0795ZM26.1113 15.5451C26.1113 15.3576 26.1863 15.1779 26.3191 15.0451C26.4519 14.9123 26.6316 14.8373 26.8191 14.8373H33.7207C34.1051 14.8466 34.4114 15.1607 34.4114 15.5451C34.4114 15.9294 34.1051 16.2435 33.7207 16.2529H26.8191C26.6316 16.2529 26.4519 16.1779 26.3191 16.0451C26.1863 15.9122 26.1113 15.7326 26.1113 15.5435V15.5451ZM26.1113 20.0107C26.1113 19.6185 26.4285 19.3029 26.8191 19.3029H33.7207C34.1051 19.3107 34.4114 19.6248 34.4114 20.0107C34.4114 20.3951 34.1051 20.7091 33.7207 20.7185H26.8191C26.6316 20.7185 26.4519 20.6435 26.3191 20.5107C26.1863 20.3779 26.1113 20.1966 26.1113 20.0091L26.1113 20.0107Z" fill="black"/>
</svg>
