<svg width="41" height="41" viewBox="0 0 41 41" fill="none" xmlns="http://www.w3.org/2000/svg">
<path fill-rule="evenodd" clip-rule="evenodd" d="M21.2759 8.27053L22.0556 7.48617C22.3056 7.23461 22.4274 6.88305 22.3837 6.53149C22.3399 6.17837 22.1368 5.86585 21.8321 5.68461L20.0899 4.63929C19.6368 4.36742 19.0556 4.43929 18.6806 4.81273L16.4743 7.01897C16.0493 6.90959 15.6228 6.79866 15.1962 6.68928L16.0853 5.79396C16.3353 5.5424 16.4556 5.19084 16.4118 4.83928C16.3681 4.48772 16.165 4.1752 15.8603 3.9924L14.1181 2.94708C13.665 2.67521 13.0837 2.74552 12.7087 3.11896L10.3681 5.46116C8.83997 5.07991 7.52901 4.76428 6.64621 4.57052C5.72433 4.36739 4.76185 4.64864 4.09465 5.31584L2.47745 6.9346C2.34307 7.06897 2.27588 7.25803 2.29932 7.44868C2.3212 7.6393 2.42745 7.80805 2.58995 7.90804L17.704 17.244C13.8617 21.2065 12.2743 22.916 11.3287 23.9048C11.3272 23.9064 5.18795 23.0283 5.18795 23.0283C4.42231 22.9189 3.64887 23.1752 3.10359 23.7236C2.67079 24.1548 2.18327 24.6439 2.18327 24.6439C2.04733 24.7799 1.98014 24.9705 2.00514 25.1611C2.02858 25.3517 2.13952 25.5221 2.30358 25.6205L8.39878 29.2767L7.7269 31.7564C7.66752 31.972 7.73003 32.2033 7.88784 32.3626C8.04721 32.5204 8.2769 32.5829 8.49252 32.5236L10.9722 31.8517L14.63 37.9453C14.7284 38.1109 14.8972 38.2203 15.0894 38.2437C15.28 38.2672 15.4722 38.2015 15.6081 38.0656C15.6081 38.0656 16.0956 37.5765 16.5284 37.1453C17.0753 36.5984 17.3316 35.825 17.2238 35.0609L16.3269 28.7857C17.3878 27.7826 19.055 26.2685 22.9737 22.4997L32.3441 37.6577C32.4441 37.8202 32.6144 37.928 32.8034 37.9499C32.9925 37.9718 33.1816 37.9062 33.3175 37.7718L34.9347 36.153C35.6019 35.4874 35.8832 34.5249 35.6816 33.603C35.4863 32.7187 35.1707 31.4077 34.791 29.8811L37.1316 27.539C37.5066 27.1655 37.5785 26.5858 37.305 26.1312L36.2582 24.3874C36.0753 24.0843 35.7644 23.8812 35.4128 23.8358C35.0597 23.7921 34.7082 23.9124 34.4566 24.1624L33.5628 25.0515C33.4535 24.6265 33.3425 24.1984 33.2331 23.7749L35.4394 21.5687C35.8128 21.1937 35.8847 20.614 35.6113 20.1593L34.5659 18.4171C34.3831 18.1124 34.0706 17.9093 33.7191 17.8656C33.3659 17.8218 33.0144 17.9421 32.7628 18.1921L31.9785 18.9734C31.4597 16.9968 31.0503 15.4546 30.8894 14.8514C33.0425 12.7545 35.441 10.3922 36.813 9.02016C37.9271 7.90452 38.3411 5.65452 38.2271 4.16096C38.1677 3.38908 37.9411 2.80784 37.6895 2.55628C37.4395 2.30471 36.8567 2.07816 36.0864 2.01876C34.5927 1.90313 32.3458 2.31563 31.2272 3.4344C29.8538 4.80628 27.4866 7.2016 25.3804 9.3532C24.7663 9.18913 23.2335 8.78288 21.274 8.26884L21.2759 8.27053ZM15.1931 29.7081C14.2493 30.3863 13.24 30.955 12.1712 31.4253L15.2868 36.6173L15.64 36.2642C15.9087 35.9955 16.0368 35.6158 15.9822 35.2392L15.1915 29.708L15.1931 29.7081ZM29.8619 15.8489L23.8915 21.6145L26.0415 25.0927L26.8508 24.2833C27.129 24.0052 27.5274 23.8771 27.9165 23.9427C28.3055 24.0083 28.6399 24.2583 28.8134 24.613L30.754 28.5927C30.9399 28.977 30.9134 29.427 30.6853 29.7864L29.7993 31.1739L32.99 36.3331L34.0493 35.2738C34.415 34.9082 34.5697 34.3816 34.4587 33.8769C34.1181 32.33 33.4056 29.4737 32.6259 26.4361C32.6228 26.4267 32.6228 26.4189 32.6196 26.4095C32.3946 25.5314 32.165 24.6392 31.9353 23.758C31.9322 23.7502 31.9306 23.7424 31.929 23.733C31.6259 22.5627 31.3259 21.4158 31.0478 20.3549C31.0462 20.3471 31.0447 20.3408 31.0431 20.333C30.5462 18.4314 30.1166 16.813 29.8619 15.8489ZM29.915 14.0599C32.0884 11.9442 34.5386 9.53025 35.9306 8.13785C36.6868 7.38161 36.9759 5.94721 36.9962 4.80973C37.0041 4.36285 36.9681 3.96129 36.8884 3.66285C36.8619 3.56598 36.8478 3.48317 36.8056 3.44098C36.7634 3.39879 36.6806 3.38473 36.5837 3.35817C36.2869 3.27848 35.8853 3.24254 35.4384 3.25035C34.3041 3.27067 32.8697 3.55973 32.1103 4.31755C30.7181 5.70819 28.3041 8.15191 26.1775 10.324L19.1399 17.5552C14.5991 22.2288 12.9835 23.9864 12.0227 24.9832C11.0196 26.2269 10.2399 27.6144 9.71959 29.166L9.21335 31.0316L11.0649 30.53C12.5868 29.93 13.9868 29.1285 15.2413 28.0878C16.3397 27.0394 18.0475 25.5082 22.6569 21.0658L29.9133 14.0566L29.915 14.0599ZM26.7181 26.1847L29.0712 29.9925L29.6244 29.1253L27.7087 25.194L26.7181 26.1847ZM33.9213 26.4565C34.0963 27.1424 34.2682 27.8174 34.4322 28.469L36.1916 26.7097L35.2494 25.1378L33.9213 26.4565ZM10.4181 25.0409L5.00892 24.269C4.63236 24.2159 4.25424 24.3409 3.98548 24.6096L3.63236 24.9628L8.79636 28.0596C9.22136 26.98 9.76668 25.9753 10.4198 25.0393L10.4181 25.0409ZM32.3445 20.3753C32.5117 21.0175 32.6883 21.6878 32.8664 22.3737L34.5008 20.7394L33.5586 19.1675L32.3461 20.3737L32.3445 20.3753ZM13.8149 7.62529C10.7806 6.84717 7.92293 6.13309 6.37573 5.79249C5.86949 5.68155 5.34292 5.83624 4.97728 6.20185L3.91792 7.26121L9.07713 10.4503L10.4615 9.56593C10.8209 9.33624 11.2724 9.31124 11.6552 9.49718L15.6365 11.4378C15.9912 11.6097 16.2396 11.9441 16.3052 12.3347C16.3709 12.7253 16.2443 13.1206 15.9646 13.4003L15.1584 14.2066L18.5927 16.3285L24.3771 10.3833C23.4099 10.127 21.8006 9.70202 19.9131 9.20826C19.9069 9.20514 19.8991 9.20514 19.8928 9.20201C18.8335 8.92389 17.685 8.62545 16.5147 8.32233C16.5069 8.31921 16.4991 8.31764 16.4897 8.31608C15.61 8.08796 14.7178 7.85672 13.8381 7.63172C13.8288 7.6286 13.821 7.62703 13.8116 7.62391L13.8149 7.62529ZM10.2602 11.1784L14.068 13.5315L15.0556 12.544L11.1243 10.6268L10.2602 11.1799V11.1784ZM31.7338 6.87521C32.6526 7.05021 33.2057 7.58929 33.3745 8.51273C33.437 8.85335 33.762 9.07837 34.1026 9.01585C34.4417 8.95335 34.6682 8.62835 34.6057 8.28773C34.3339 6.79865 33.4464 5.92681 31.9682 5.64709C31.6291 5.58303 31.3026 5.80647 31.237 6.14397C31.1729 6.48303 31.3963 6.80961 31.7354 6.87365L31.7338 6.87521ZM17.8774 7.38457C18.5618 7.56269 19.2337 7.73769 19.8759 7.90645L21.0821 6.69397L19.5102 5.75177L17.8774 7.38457ZM11.7806 5.81893C12.4322 5.98455 13.1072 6.15487 13.7931 6.33141L15.1119 5.00329L13.54 4.05953L11.7806 5.81893Z" fill="black"/>
</svg>
