<svg width="40" height="40" viewBox="0 0 40 40" fill="none" xmlns="http://www.w3.org/2000/svg">
<g clip-path="url(#clip0_5078_1816)">
<path d="M35.9983 5.80765H34.4389V3.84829C34.4389 1.84829 32.7983 0.248291 30.7983 0.248291H9.03908C7.03908 0.248291 5.39844 1.88893 5.39844 3.88893V5.80925L3.87968 5.80769C2.83904 5.80769 2 6.64833 2 7.68737V13.0078C2 14.0484 2.84064 14.8874 3.87968 14.8874H5.43904V32.6078C5.43904 34.2875 6.55936 35.6875 8.07968 36.0875V38.8875C8.07968 39.2078 8.35937 39.4875 8.67968 39.4875H13.1593C13.4796 39.4875 13.7593 39.2078 13.7593 38.8875V36.2469H26.2001V38.8875C26.2001 39.2078 26.4798 39.4875 26.8001 39.4875H31.2797C31.6 39.4875 31.8797 39.2078 31.8797 38.8875V36.0875C33.3594 35.6469 34.439 34.2469 34.439 32.6078V14.8486H35.9984C37.039 14.8486 37.8781 14.008 37.8781 12.969L37.8796 7.68937C37.8796 6.64873 37.039 5.80813 35.9984 5.80813L35.9983 5.80765ZM33.2389 23.6077H20.5185V6.48885H33.2389V23.6077ZM6.63892 6.48885H19.3185V23.6481H6.63892V6.48885ZM9.03892 1.44805H30.7981C32.1184 1.44805 33.1981 2.52773 33.1981 3.84805V5.24805H6.63892V3.84805C6.63892 2.52773 7.7186 1.44805 9.03892 1.44805ZM3.87972 13.6481C3.52034 13.6481 3.20004 13.3277 3.20004 12.9684L3.19848 7.68877C3.19848 7.3294 3.51879 7.00909 3.87816 7.00909H5.43752V13.6499L3.87972 13.6481ZM12.5593 38.2481H9.31868V36.2074H12.5593V38.2481ZM30.6797 38.2481H27.4391V36.2074H30.6797V38.2481ZM30.7985 35.0074H9.03927C7.71895 35.0074 6.63927 33.9277 6.63927 32.6074V31.8481H13.1597C13.48 31.8481 13.7597 31.5684 13.7597 31.2481V28.3684C13.7597 28.0481 13.48 27.7684 13.1597 27.7684H6.63927V24.8481H33.2393V27.7684H26.8393C26.519 27.7684 26.2393 28.0481 26.2393 28.3684V31.2481C26.2393 31.5684 26.519 31.8481 26.8393 31.8481H33.2393V32.6074C33.2393 33.9277 32.1188 35.0074 30.7985 35.0074ZM12.5593 28.9682V30.6089H9.55927V28.9682H12.5593ZM8.31847 30.6073H6.83879V28.9667H8.31847V30.6073ZM27.3981 30.6073V28.9667H30.3981V30.6073H27.3981ZM31.6389 28.9682H33.1186V30.6089L31.6389 30.6073V28.9682ZM36.6797 12.9682C36.6797 13.3276 36.3594 13.6479 36 13.6479H34.4391V7.00709H35.9984C36.3578 7.00709 36.6781 7.3274 36.6781 7.68677L36.6797 12.9682Z" fill="black"/>
<path d="M8.59834 10.2485L11.1187 8.52822C11.3983 8.32822 11.478 7.96886 11.278 7.68758C11.078 7.4079 10.7187 7.32821 10.4374 7.52821L7.91708 9.24853C7.63739 9.44853 7.5577 9.80789 7.7577 10.0892C7.87801 10.2485 8.07801 10.3689 8.23738 10.3689C8.35926 10.3689 8.47959 10.3282 8.59834 10.2485Z" fill="black"/>
<path d="M12.8798 9.52816C12.6798 9.24847 12.3205 9.16878 12.0392 9.36878L8.47982 11.7688C8.20013 11.9688 8.12044 12.3281 8.32044 12.6094C8.44076 12.7688 8.64076 12.8891 8.84076 12.8891C8.96108 12.8891 9.08139 12.8485 9.16108 12.7688L12.7204 10.3688C12.9986 10.2079 13.0798 9.80788 12.8798 9.52816Z" fill="black"/>
<path d="M15.839 3.84844H23.9982C24.3185 3.84844 24.5982 3.56875 24.5982 3.24844C24.5982 2.92813 24.3185 2.64844 23.9982 2.64844H15.839C15.5187 2.64844 15.239 2.88906 15.239 3.24844C15.239 3.56875 15.5187 3.84844 15.839 3.84844Z" fill="black"/>
<path d="M22.7596 27.9688H17.08C16.7597 27.9688 16.48 28.2484 16.48 28.5688C16.48 28.8891 16.7597 29.1688 17.08 29.1688H22.7596C23.0799 29.1688 23.3596 28.8891 23.3596 28.5688C23.3596 28.2078 23.119 27.9688 22.7596 27.9688Z" fill="black"/>
<path d="M22.7596 30.6077H17.08C16.7597 30.6077 16.48 30.8874 16.48 31.2077C16.48 31.528 16.7597 31.8077 17.08 31.8077H22.7596C23.0799 31.8077 23.3596 31.528 23.3596 31.2077C23.3596 30.8889 23.119 30.6077 22.7596 30.6077Z" fill="black"/>
</g>
<defs>
<clipPath id="clip0_5078_1816">
<rect width="39.8796" height="39.2392" fill="white" transform="translate(0 0.248291)"/>
</clipPath>
</defs>
</svg>
