<svg xmlns="http://www.w3.org/2000/svg" viewBox="0 0 240 100" role="img" aria-label="Border City Dental">
  <g transform="translate(30 50)">
    <path d="M0,-14 C-6,-14 -10,-8 -10,-2 C-10,8 -4,16 0,16 C4,16 10,8 10,-2 C10,-8 6,-14 0,-14 Z" fill="#1F7AE0"/>
    <path d="M0,-10 C-4,-10 -7,-6 -7,-1 C-7,2 -5,5 -3,5 C-2,5 -1,3 0,3 C1,3 2,5 3,5 C5,5 7,2 7,-1 C7,-6 4,-10 0,-10 Z" fill="#0E1726" opacity="0.85"/>
  </g>
  <g font-family="-apple-system, 'Inter', 'Helvetica Neue', sans-serif" fill="#0E1726" text-anchor="start">
    <text x="58" y="46" font-size="22" font-weight="700">Border City</text>
    <text x="58" y="72" font-size="14" font-weight="500" letter-spacing="0.36em" fill="#1F7AE0">DENTAL</text>
  </g>
</svg>
