<?xml version="1.0" encoding="UTF-8"?> <svg xmlns="http://www.w3.org/2000/svg" id="Layer_1" data-name="Layer 1" viewBox="0 0 350.41 111.31"><defs><style> .cls-1 { fill: #f7c800; } .cls-1, .cls-2 { stroke-width: 0px; } .cls-2 { fill: #fff; } </style></defs><polygon class="cls-2" points="49.14 11.86 49.14 40.18 19.21 40.18 19.21 11.86 0 11.86 0 85.55 19.21 85.55 19.21 55.83 49.14 55.83 49.14 85.55 52.08 85.55 68.34 42.27 68.34 11.86 49.14 11.86"></polygon><path class="cls-2" d="M105.69,11.86h-23.06l-14.28,38.03-13.4,35.67h19.74l4.4-12.76h29.39l4.4,12.76h7.6v-34.31l-14.79-39.38ZM83.7,58.4l5.36-15.54c.43-1.29.91-2.79,1.45-4.52.54-1.72,1.07-3.42,1.61-5.13.54-1.73.95-3.26,1.24-4.63h.75c.36,1,.71,2.18,1.07,3.55.36,1.35.74,2.7,1.12,4.02.39,1.31.79,2.58,1.18,3.76.39,1.17.74,2.16,1.02,2.95l5.25,15.54h-20.06Z"></path><path class="cls-2" d="M190.2,80.27l-12.12-23.89c3.93-2.08,6.99-4.96,9.17-8.65,1.5-2.53,2.49-5.32,2.95-8.37.21-1.35.32-2.76.32-4.22s-.11-2.88-.32-4.25c-.39-2.72-1.21-5.26-2.41-7.62-1.82-3.53-4.56-6.33-8.21-8.35-3.65-2.05-8.19-3.06-13.62-3.06h-42.8v73.7h19.2v-25.97h16.84l12.23,25.97h21.45l-2.68-5.28ZM168.59,42.7c-1.61,1.74-3.74,2.63-6.38,2.63h-19.84v-18.88h19.84c1.85,0,3.43.38,4.72,1.11,1.29.76,2.29,1.81,3,3.18.71,1.35,1.07,3,1.07,4.92,0,2.94-.8,5.28-2.41,7.04Z"></path><path class="cls-2" d="M247.81,56.38c3.93-2.08,6.99-4.96,9.17-8.65,2.17-3.67,3.27-7.87,3.27-12.59,0-.15,0-.29-.01-.43h-9.28l5.35-13.45c-1.74-2.6-4.08-4.72-7-6.34-3.65-2.05-8.19-3.06-13.62-3.06h-42.8v73.7h19.2v-25.97h16.84l12.23,25.97h21.45l-14.8-29.18ZM238.31,42.7c-1.61,1.74-3.74,2.63-6.38,2.63h-19.84v-18.88h19.84c1.85,0,3.43.38,4.72,1.11,1.29.76,2.29,1.81,3,3.18.71,1.35,1.07,3,1.07,4.92,0,2.94-.8,5.28-2.41,7.04Z"></path><path class="cls-2" d="M348.54,53.8c-1.26-2.37-2.95-4.34-5.1-5.97-2.15-1.61-4.55-2.92-7.19-3.96-2.65-1.05-5.39-1.9-8.21-2.57-2.83-.68-5.56-1.33-8.21-1.94-2.65-.6-5.04-1.26-7.19-1.97-2.15-.72-3.85-1.58-5.1-2.57-1.26-1.01-1.88-2.29-1.88-3.86,0-1.29.48-2.4,1.45-3.34.97-.93,2.36-1.64,4.18-2.13,1.82-.51,4.05-.76,6.7-.76s4.85.39,6.65,1.14c1.78.75,3.12,1.74,4.02,2.99.89,1.26,1.34,2.71,1.34,4.36v.74h18.45v-1.29c-.08-3.86-.91-7.16-2.52-9.91-1.61-2.76-3.85-5.04-6.7-6.87-2.87-1.84-6.14-3.18-9.82-4.02-3.69-.86-7.64-1.29-11.85-1.29s-8.34.4-12.12,1.23c-3.79.82-7.13,2.12-10.03,3.92-2.01,1.23-3.71,2.72-5.12,4.47l-4.14,11.99c-.01.16-.01.32-.01.48,0,1.61.13,3.11.4,4.49h11.4l-4.92,10.61s.03.01.04.03c2.1,1.65,4.48,3.02,7.13,4.08,2.64,1.07,5.39,1.97,8.26,2.68,2.86.72,5.61,1.41,8.26,2.05,2.64.63,5.01,1.31,7.13,2.04,2.1.71,3.78,1.61,5.04,2.68,1.25,1.06,1.88,2.43,1.88,4.08,0,.99-.2,1.88-.59,2.63-.4.75-1.01,1.39-1.82,1.93-.83.52-1.77.98-2.84,1.34-1.07.35-2.29.6-3.65.75-1.37.13-2.83.21-4.4.21-2.87,0-5.36-.31-7.51-.91-2.15-.62-3.81-1.61-4.99-3-1.18-1.39-1.77-3.25-1.77-5.52,0-.23.01-.5.05-.8.03-.32.05-.59.05-.82h-16.52l-2.04,4.38c.28,3.33,1.14,6.22,2.58,8.65,1.78,3.04,4.24,5.5,7.35,7.36,3.11,1.85,6.7,3.19,10.78,4.02,4.08.82,8.43,1.23,13.09,1.23,6.07,0,11.53-.83,16.36-2.47,4.83-1.65,8.61-4.26,11.37-7.83,2.75-3.58,4.13-8.3,4.13-14.17,0-3.35-.63-6.21-1.88-8.57Z"></path><polygon class="cls-1" points="280.63 39.83 293.76 39.83 290.96 45.85 264.79 102.25 266.59 88.23 266.66 87.63 266.66 87.62 270.5 57.88 257.54 57.88 266.69 32.08 266.7 32.05 266.7 32.03 254.91 32.03 258 24.29 259.31 20.99 267.67 0 294.4 0 289.27 14.97 284.55 28.71 283.37 32.08 280.63 39.83"></polygon><g><path class="cls-2" d="M0,111.06v-14.61h11.33v2.04H2.38v4.07h8.01v2.04H2.38v4.41h9.07v2.04H0Z"></path><path class="cls-2" d="M24.14,111.06v-14.61h2.38v12.54h7.28v2.07h-9.67Z"></path><path class="cls-2" d="M45.69,111.06v-14.61h11.33v2.04h-8.94v4.07h8.01v2.04h-8.01v4.41h9.07v2.04h-11.45Z"></path><path class="cls-2" d="M76.15,111.31c-1.49,0-2.76-.27-3.8-.8-1.04-.53-1.84-1.36-2.4-2.48-.55-1.12-.83-2.55-.83-4.28,0-2.55.62-4.45,1.86-5.69,1.24-1.24,2.97-1.86,5.18-1.86,1.22,0,2.32.21,3.29.62.97.41,1.74,1.03,2.3,1.84.56.82.84,1.86.84,3.12h-2.43c0-.78-.16-1.43-.49-1.96-.33-.52-.79-.92-1.39-1.19-.6-.27-1.3-.4-2.1-.4-.99,0-1.83.2-2.52.59-.69.39-1.21.98-1.55,1.76-.35.78-.52,1.77-.52,2.98v.47c0,1.21.17,2.2.52,2.98.35.78.86,1.36,1.54,1.74.68.38,1.53.56,2.53.56.82,0,1.54-.13,2.15-.39.61-.26,1.08-.66,1.42-1.18.33-.52.5-1.18.5-1.96h2.34c0,1.26-.28,2.31-.84,3.13-.56.82-1.33,1.43-2.3,1.83-.97.4-2.08.6-3.31.6Z"></path><path class="cls-2" d="M98.21,111.06v-12.56h-4.83v-2.04h12.09v2.04h-4.88v12.56h-2.38Z"></path><path class="cls-2" d="M117.46,111.06v-14.61h7.69c1.04,0,1.89.18,2.58.55.68.37,1.19.88,1.53,1.54s.51,1.43.51,2.31c0,.98-.22,1.83-.66,2.55-.44.72-1.06,1.26-1.87,1.6l3.04,6.05h-2.6l-2.77-5.64h-5.07v5.64h-2.38ZM119.84,103.41h5.11c.77,0,1.36-.23,1.78-.68.42-.45.63-1.09.63-1.89,0-.5-.09-.92-.28-1.27-.18-.35-.45-.61-.81-.8-.36-.18-.8-.28-1.32-.28h-5.11v4.92Z"></path><path class="cls-2" d="M142.62,111.06v-14.61h2.38v14.61h-2.38Z"></path><path class="cls-2" d="M164.57,111.31c-1.49,0-2.76-.27-3.8-.8-1.04-.53-1.84-1.36-2.4-2.48-.55-1.12-.83-2.55-.83-4.28,0-2.55.62-4.45,1.86-5.69,1.24-1.24,2.97-1.86,5.18-1.86,1.22,0,2.32.21,3.29.62.97.41,1.74,1.03,2.3,1.84.56.82.84,1.86.84,3.12h-2.43c0-.78-.16-1.43-.49-1.96-.33-.52-.79-.92-1.39-1.19-.6-.27-1.3-.4-2.1-.4-.99,0-1.83.2-2.52.59-.69.39-1.21.98-1.55,1.76-.35.78-.52,1.77-.52,2.98v.47c0,1.21.17,2.2.52,2.98.35.78.86,1.36,1.54,1.74.68.38,1.53.56,2.53.56.82,0,1.54-.13,2.15-.39.61-.26,1.08-.66,1.42-1.18.33-.52.5-1.18.5-1.96h2.34c0,1.26-.28,2.31-.84,3.13-.56.82-1.33,1.43-2.3,1.83-.97.4-2.08.6-3.31.6Z"></path><path class="cls-2" d="M203.96,111.31c-1.49,0-2.76-.27-3.8-.8-1.04-.53-1.84-1.36-2.4-2.48-.55-1.12-.83-2.55-.83-4.28,0-2.55.62-4.45,1.86-5.69,1.24-1.24,2.97-1.86,5.18-1.86,1.22,0,2.32.21,3.29.62.97.41,1.74,1.03,2.3,1.84.56.82.84,1.86.84,3.12h-2.43c0-.78-.16-1.43-.49-1.96-.33-.52-.79-.92-1.39-1.19-.6-.27-1.3-.4-2.1-.4-.99,0-1.83.2-2.52.59-.69.39-1.21.98-1.55,1.76-.35.78-.52,1.77-.52,2.98v.47c0,1.21.17,2.2.52,2.98.35.78.86,1.36,1.54,1.74.68.38,1.53.56,2.53.56.82,0,1.54-.13,2.15-.39.61-.26,1.08-.66,1.42-1.18.33-.52.5-1.18.5-1.96h2.34c0,1.26-.28,2.31-.84,3.13-.56.82-1.33,1.43-2.3,1.83-.97.4-2.08.6-3.31.6Z"></path><path class="cls-2" d="M229.49,111.31c-1.5,0-2.81-.28-3.91-.83-1.1-.55-1.94-1.39-2.53-2.51-.59-1.12-.88-2.53-.88-4.22s.29-3.11.88-4.23c.59-1.11,1.43-1.95,2.53-2.5,1.1-.55,2.4-.83,3.91-.83s2.85.28,3.94.83c1.09.55,1.93,1.39,2.52,2.5.59,1.11.88,2.52.88,4.23s-.29,3.09-.88,4.22c-.59,1.12-1.43,1.96-2.52,2.51-1.09.55-2.41.83-3.94.83ZM229.49,109.29c.78,0,1.47-.11,2.08-.32s1.11-.54,1.53-.98c.42-.44.74-.99.96-1.66.22-.67.33-1.44.33-2.32v-.47c0-.91-.11-1.7-.33-2.36-.22-.67-.54-1.22-.96-1.66-.42-.44-.93-.77-1.53-.98s-1.29-.32-2.08-.32-1.45.11-2.05.32-1.11.54-1.53.98c-.42.44-.73.99-.95,1.66-.21.67-.32,1.45-.32,2.36v.47c0,.88.11,1.65.32,2.32.21.67.53,1.22.95,1.66.42.44.93.77,1.53.98s1.29.32,2.05.32Z"></path><path class="cls-2" d="M248.84,111.06v-2.47h2.36v2.47h-2.36Z"></path><path class="cls-2" d="M278.77,111.06v-14.61h2.38v12.54h7.28v2.07h-9.67Z"></path><path class="cls-2" d="M302.08,111.06v-12.56h-4.83v-2.04h12.09v2.04h-4.88v12.56h-2.38Z"></path><path class="cls-2" d="M321.33,111.06v-14.61h5.64c1.5,0,2.79.26,3.85.78,1.06.52,1.88,1.31,2.46,2.38s.86,2.45.86,4.14-.29,3.05-.86,4.13c-.57,1.08-1.39,1.88-2.46,2.4-1.06.52-2.35.78-3.85.78h-5.64ZM323.72,109.01h3.24c.75,0,1.42-.1,2.01-.3.59-.2,1.09-.5,1.49-.92.4-.41.71-.93.92-1.56.21-.63.31-1.38.31-2.25v-.45c0-.88-.1-1.64-.31-2.27-.21-.63-.51-1.15-.92-1.56-.4-.41-.9-.72-1.49-.92-.59-.2-1.26-.3-2.01-.3h-3.24v10.52Z"></path><path class="cls-2" d="M346.16,111.06v-2.47h2.36v2.47h-2.36Z"></path></g></svg> 