<?xml version="1.0" encoding="utf-8"?>
<!-- Generator: Adobe Illustrator 23.1.1, SVG Export Plug-In . SVG Version: 6.00 Build 0)  -->
<svg version="1.1" id="Layer_1" xmlns="http://www.w3.org/2000/svg" xmlns:xlink="http://www.w3.org/1999/xlink" x="0px" y="0px"
	 viewBox="0 0 235 112" enable-background="new 0 0 235 112" xml:space="preserve">
<g>
	<path fill="#ED1C24" d="M32.182,109.476c-0.094,0-0.173-0.032-0.236-0.096c-0.064-0.064-0.097-0.144-0.097-0.237v-9.964
		c0-0.089,0.032-0.166,0.097-0.23c0.063-0.063,0.143-0.096,0.236-0.096h9.461c0.094,0,0.173,0.032,0.236,0.096
		c0.064,0.064,0.097,0.142,0.097,0.23v2.326c0,0.094-0.032,0.173-0.097,0.236c-0.063,0.064-0.143,0.097-0.236,0.097h-6.638
		c-0.114,0-0.171,0.055-0.171,0.163v0.667c0,0.108,0.057,0.163,0.171,0.163h4.318c0.089,0,0.166,0.034,0.229,0.104
		c0.064,0.064,0.097,0.141,0.097,0.229v1.993c0,0.094-0.032,0.173-0.097,0.236c-0.063,0.064-0.141,0.097-0.229,0.097h-4.318
		c-0.114,0-0.171,0.055-0.171,0.163v3.489c0,0.094-0.032,0.173-0.097,0.237c-0.063,0.063-0.141,0.096-0.229,0.096L32.182,109.476
		L32.182,109.476z"/>
	<path fill="#ED1C24" d="M54.642,98.852c0.089,0,0.165,0.032,0.229,0.096c0.069,0.064,0.104,0.142,0.104,0.23v7.142
		c0,0.874-0.309,1.617-0.926,2.229c-0.617,0.617-1.36,0.926-2.229,0.926h-3.985c-0.875,0-1.618-0.309-2.23-0.926
		c-0.617-0.612-0.926-1.355-0.926-2.229v-7.142c0-0.089,0.032-0.166,0.097-0.23c0.063-0.063,0.143-0.096,0.236-0.096h2.326
		c0.089,0,0.166,0.032,0.229,0.096c0.064,0.064,0.097,0.142,0.097,0.23v6.979c0,0.089,0.034,0.165,0.104,0.229
		c0.064,0.069,0.141,0.104,0.229,0.104h3.652c0.094,0,0.173-0.034,0.237-0.104c0.064-0.064,0.097-0.141,0.097-0.229v-6.979
		c0-0.089,0.032-0.166,0.096-0.23c0.064-0.063,0.144-0.096,0.237-0.096C52.316,98.852,54.642,98.852,54.642,98.852z"/>
	<path fill="#ED1C24" d="M58.011,109.476c-0.094,0-0.173-0.032-0.236-0.096c-0.064-0.064-0.097-0.144-0.097-0.237v-9.964
		c0-0.089,0.032-0.166,0.097-0.23c0.063-0.063,0.143-0.096,0.236-0.096h9.461c0.094,0,0.173,0.032,0.236,0.096
		c0.064,0.064,0.097,0.142,0.097,0.23v2.326c0,0.094-0.032,0.173-0.097,0.236c-0.063,0.064-0.143,0.097-0.236,0.097h-6.638
		c-0.114,0-0.171,0.055-0.171,0.163v0.667c0,0.108,0.057,0.163,0.171,0.163h4.318c0.089,0,0.166,0.034,0.229,0.104
		c0.064,0.064,0.097,0.141,0.097,0.229v1.993c0,0.094-0.032,0.173-0.097,0.236c-0.063,0.064-0.141,0.097-0.229,0.097h-4.318
		c-0.114,0-0.171,0.055-0.171,0.163v0.667c0,0.113,0.057,0.17,0.171,0.17h6.638c0.094,0,0.173,0.032,0.236,0.097
		c0.064,0.063,0.097,0.141,0.097,0.229v2.326c0,0.094-0.032,0.173-0.097,0.237c-0.063,0.063-0.143,0.096-0.236,0.096h-9.461V109.476
		z"/>
	<path fill="#ED1C24" d="M70.841,109.476c-0.094,0-0.173-0.032-0.236-0.096c-0.064-0.064-0.097-0.144-0.097-0.237v-9.964
		c0-0.089,0.032-0.166,0.097-0.23c0.063-0.063,0.143-0.096,0.236-0.096h2.326c0.089,0,0.166,0.032,0.229,0.096
		c0.064,0.064,0.097,0.142,0.097,0.23v7.142c0,0.113,0.057,0.17,0.171,0.17h6.141c0.094,0,0.173,0.032,0.237,0.097
		c0.064,0.063,0.097,0.141,0.097,0.229v2.326c0,0.094-0.032,0.173-0.097,0.237c-0.064,0.063-0.144,0.096-0.237,0.096
		C79.805,109.476,70.841,109.476,70.841,109.476z"/>
	<path fill="#ED1C24" d="M88.212,99.349c-0.06-0.113-0.057-0.225,0.008-0.333c0.059-0.108,0.152-0.163,0.281-0.163h2.682
		c0.128,0,0.225,0.055,0.289,0.163l1.926,3.378c0.029,0.055,0.076,0.081,0.141,0.081s0.114-0.026,0.148-0.081l1.926-3.378
		c0.064-0.108,0.161-0.163,0.289-0.163h2.682c0.124,0,0.218,0.055,0.282,0.163c0.063,0.108,0.066,0.22,0.007,0.333l-3.793,6.631
		c-0.029,0.049-0.044,0.104-0.044,0.163v3c0,0.094-0.032,0.173-0.097,0.237c-0.064,0.063-0.144,0.096-0.237,0.096h-2.318
		c-0.094,0-0.173-0.032-0.237-0.096s-0.097-0.144-0.097-0.237v-3c0-0.06-0.015-0.114-0.044-0.163L88.212,99.349z"/>
	<path fill="#ED1C24" d="M103.486,109.476c-0.87,0-1.613-0.309-2.23-0.926s-0.926-1.36-0.926-2.229v-4.319
		c0-0.869,0.309-1.612,0.926-2.229c0.617-0.612,1.36-0.919,2.23-0.919h3.985c0.869,0,1.612,0.307,2.229,0.919
		c0.617,0.617,0.926,1.36,0.926,2.229v4.319c0,0.869-0.309,1.612-0.926,2.229s-1.36,0.926-2.229,0.926
		C107.471,109.476,103.486,109.476,103.486,109.476z M103.315,106.157c0,0.089,0.034,0.165,0.104,0.229
		c0.064,0.069,0.141,0.104,0.229,0.104h3.652c0.094,0,0.173-0.034,0.237-0.104c0.064-0.064,0.097-0.141,0.097-0.229v-3.986
		c0-0.094-0.032-0.173-0.097-0.236c-0.064-0.064-0.144-0.097-0.237-0.097h-3.652c-0.089,0-0.165,0.032-0.229,0.097
		c-0.069,0.063-0.104,0.143-0.104,0.236V106.157z"/>
	<path fill="#ED1C24" d="M123.294,98.852c0.089,0,0.165,0.032,0.229,0.096c0.069,0.064,0.104,0.142,0.104,0.23v7.142
		c0,0.874-0.309,1.617-0.926,2.229c-0.617,0.617-1.36,0.926-2.229,0.926h-3.985c-0.875,0-1.618-0.309-2.23-0.926
		c-0.617-0.612-0.926-1.355-0.926-2.229v-7.142c0-0.089,0.032-0.166,0.097-0.23c0.063-0.063,0.143-0.096,0.236-0.096h2.326
		c0.089,0,0.166,0.032,0.229,0.096c0.064,0.064,0.097,0.142,0.097,0.23v6.979c0,0.089,0.034,0.165,0.104,0.229
		c0.064,0.069,0.141,0.104,0.229,0.104h3.652c0.094,0,0.173-0.034,0.237-0.104c0.064-0.064,0.097-0.141,0.097-0.229v-6.979
		c0-0.089,0.032-0.166,0.096-0.23c0.064-0.063,0.144-0.096,0.237-0.096C120.968,98.852,123.294,98.852,123.294,98.852z"/>
	<path fill="#ED1C24" d="M126.663,109.476c-0.094,0-0.173-0.032-0.236-0.096c-0.064-0.064-0.097-0.144-0.097-0.237v-9.964
		c0-0.089,0.032-0.166,0.097-0.23c0.063-0.063,0.143-0.096,0.236-0.096h6.897c0.869,0,1.612,0.307,2.229,0.919
		c0.612,0.617,0.919,1.36,0.919,2.229v1.83c0,0.642-0.181,1.229-0.541,1.763c-0.351,0.519-0.814,0.901-1.393,1.148
		c-0.05,0.02-0.081,0.057-0.097,0.111c-0.01,0.049,0,0.096,0.03,0.141l1.504,1.948c0.084,0.108,0.096,0.225,0.037,0.349
		c-0.064,0.123-0.166,0.185-0.304,0.185h-2.935c-0.108,0-0.194-0.042-0.259-0.126l-1.771-2.296
		c-0.035-0.045-0.079-0.067-0.134-0.067h-1.2c-0.089,0-0.165,0.032-0.229,0.097c-0.069,0.064-0.104,0.144-0.104,0.237v1.822
		c0,0.094-0.032,0.173-0.097,0.237c-0.063,0.063-0.141,0.096-0.229,0.096C128.986,109.476,126.663,109.476,126.663,109.476z
		 M129.315,103.831c0,0.108,0.057,0.163,0.171,0.163h3.903c0.094,0,0.173-0.032,0.237-0.097s0.097-0.141,0.097-0.229v-1.497
		c0-0.094-0.032-0.173-0.097-0.236c-0.064-0.064-0.144-0.097-0.237-0.097h-3.903c-0.114,0-0.171,0.055-0.171,0.163V103.831z"/>
	<path fill="#ED1C24" d="M147.848,109.476c-0.875,0-1.618-0.309-2.23-0.926c-0.617-0.612-0.926-1.355-0.926-2.229v-4.319
		c0-0.869,0.309-1.612,0.926-2.229c0.612-0.612,1.355-0.919,2.23-0.919h6.638c0.094,0,0.173,0.032,0.236,0.096
		c0.064,0.064,0.097,0.142,0.097,0.23v2.326c0,0.094-0.032,0.173-0.097,0.236c-0.063,0.064-0.143,0.097-0.236,0.097h-6.476
		c-0.089,0-0.165,0.032-0.229,0.097c-0.069,0.063-0.104,0.143-0.104,0.236v3.986c0,0.089,0.034,0.165,0.104,0.229
		c0.064,0.069,0.141,0.104,0.229,0.104h3.652c0.114,0,0.171-0.057,0.171-0.17v-0.667c0-0.108-0.057-0.163-0.171-0.163h-1.488
		c-0.095,0-0.174-0.032-0.237-0.097c-0.064-0.063-0.097-0.143-0.097-0.236v-1.993c0-0.089,0.032-0.165,0.097-0.229
		c0.063-0.069,0.143-0.104,0.237-0.104h4.312c0.094,0,0.173,0.034,0.236,0.104c0.064,0.064,0.097,0.141,0.097,0.229v5.979
		c0,0.094-0.032,0.173-0.097,0.237c-0.063,0.063-0.143,0.096-0.236,0.096L147.848,109.476L147.848,109.476z"/>
	<path fill="#ED1C24" d="M160.677,109.476c-0.87,0-1.613-0.309-2.23-0.926s-0.926-1.36-0.926-2.229v-4.319
		c0-0.869,0.309-1.612,0.926-2.229c0.617-0.612,1.36-0.919,2.23-0.919h3.985c0.869,0,1.612,0.307,2.229,0.919
		c0.617,0.617,0.926,1.36,0.926,2.229v4.319c0,0.869-0.309,1.612-0.926,2.229s-1.36,0.926-2.229,0.926
		C164.662,109.476,160.677,109.476,160.677,109.476z M160.506,106.157c0,0.089,0.034,0.165,0.104,0.229
		c0.064,0.069,0.141,0.104,0.229,0.104h3.652c0.094,0,0.173-0.034,0.237-0.104c0.064-0.064,0.097-0.141,0.097-0.229v-3.986
		c0-0.094-0.032-0.173-0.097-0.236c-0.064-0.064-0.144-0.097-0.237-0.097h-3.652c-0.089,0-0.165,0.032-0.229,0.097
		c-0.069,0.063-0.104,0.143-0.104,0.236V106.157z"/>
	<path fill="#ED1C24" d="M170.003,109.476c-0.113,0-0.205-0.047-0.273-0.141c-0.064-0.099-0.077-0.202-0.037-0.311l3.733-9.957
		c0.055-0.144,0.158-0.215,0.312-0.215h3.814c0.153,0,0.257,0.071,0.312,0.215l3.733,9.957c0.04,0.108,0.027,0.212-0.037,0.311
		c-0.063,0.094-0.155,0.141-0.273,0.141h-2.482c-0.152,0-0.257-0.071-0.311-0.215l-0.46-1.229c-0.054-0.144-0.157-0.215-0.311-0.215
		h-4.156c-0.153,0-0.257,0.071-0.312,0.215l-0.459,1.229c-0.055,0.144-0.158,0.215-0.311,0.215H170.003z M174.544,104.602
		c-0.02,0.054-0.012,0.105,0.022,0.155c0.03,0.044,0.074,0.066,0.134,0.066h1.889c0.06,0,0.106-0.022,0.141-0.066
		c0.03-0.05,0.035-0.102,0.015-0.155l-0.94-2.52c-0.029-0.073-0.081-0.11-0.155-0.11c-0.079,0-0.131,0.037-0.156,0.11
		L174.544,104.602z"/>
	<path fill="#ED1C24" d="M184.691,109.476c-0.094,0-0.173-0.032-0.236-0.096c-0.064-0.064-0.097-0.144-0.097-0.237v-9.964
		c0-0.089,0.032-0.166,0.097-0.23c0.063-0.063,0.143-0.096,0.236-0.096h2.326c0.089,0,0.166,0.032,0.229,0.096
		c0.064,0.064,0.097,0.142,0.097,0.23v7.142c0,0.113,0.057,0.17,0.171,0.17h6.141c0.094,0,0.173,0.032,0.237,0.097
		c0.064,0.063,0.097,0.141,0.097,0.229v2.326c0,0.094-0.032,0.173-0.097,0.237c-0.064,0.063-0.144,0.096-0.237,0.096
		C193.655,109.476,184.691,109.476,184.691,109.476z"/>
	<path fill="#ED1C24" d="M200.009,105.49c-0.913,0-1.696-0.323-2.348-0.971c-0.647-0.646-0.971-1.43-0.971-2.349V102
		c0-0.869,0.309-1.612,0.926-2.229c0.612-0.612,1.355-0.919,2.23-0.919h6.141c0.094,0,0.173,0.032,0.237,0.096
		s0.097,0.142,0.097,0.23v2.326c0,0.094-0.032,0.173-0.097,0.236c-0.064,0.064-0.144,0.097-0.237,0.097h-5.979
		c-0.089,0-0.165,0.032-0.229,0.097c-0.069,0.063-0.104,0.143-0.104,0.236v0.334c0,0.089,0.034,0.165,0.104,0.229
		c0.064,0.064,0.141,0.097,0.229,0.097h3.327c0.913,0,1.693,0.325,2.341,0.978c0.651,0.647,0.978,1.43,0.978,2.349v0.163
		c0,0.874-0.309,1.617-0.926,2.229c-0.617,0.617-1.36,0.926-2.23,0.926h-6.141c-0.095,0-0.173-0.032-0.237-0.096
		s-0.097-0.144-0.097-0.237v-2.326c0-0.089,0.032-0.166,0.097-0.229c0.064-0.064,0.143-0.097,0.237-0.097h5.979
		c0.089,0,0.165-0.034,0.229-0.104c0.063-0.064,0.096-0.141,0.096-0.229v-0.334c0-0.094-0.032-0.173-0.096-0.236
		c-0.064-0.064-0.141-0.097-0.229-0.097L200.009,105.49L200.009,105.49z"/>
</g>
<g>
	<path fill-rule="evenodd" clip-rule="evenodd" fill="#FFFFFF" d="M53.865,75.07l22.309-14.6H46.456l-11.32,6.591V60.47h-23.89
		v32.538c5.077,0.084,8.74,0,8.74,0c15.815-1.085,15.066-6.591,15.066-6.591c11.155,5.506,12.154,5.255,12.154,5.255
		c6.16,1.419,10.738,1.335,10.738,1.335h26.221L53.865,75.07z M49.558,85.967L32.14,77.083l-0.062,6.882
		c0,0,0.874,4.129-12.923,4.129V64.381H32.14v10.7l17.418-10.7h14.235L45.875,75.456l23.848,12.638H59.298
		C59.298,88.094,54.365,88.158,49.558,85.967z"/>
	<path fill-rule="evenodd" clip-rule="evenodd" fill="#FFFFFF" d="M78.76,60.47v24.235c0,0,0.311,8.385,16.294,8.385h7.43V69.875
		C102.483,69.875,103.357,59.113,78.76,60.47z M97.817,69.199v18.707c-12.674,0.626-12.985-4.38-12.985-4.38V64.569
		C98.191,64.881,97.817,69.199,97.817,69.199z"/>
	<path fill="#FFFFFF" d="M226.449,84.246V69.061c-0.999-8.176-14.9-8.342-14.9-8.342h-32.631c-16.482,0.668-15.898,9.01-15.898,9.01
		v14.933c1.415,8.093,15.898,8.593,15.898,8.593l31.132-0.25C227.114,92.672,226.449,84.246,226.449,84.246z M221.959,83.506
		c-0.574,5.006-11.413,4.423-11.413,4.423l-30.135-0.001c-10.822,0.084-11.319-4.505-11.319-4.505v-14.1
		c0.25-4.004,10.32-4.671,10.32-4.671h32.632c10.57,0.418,9.905,4.671,9.905,4.671l-39.679,0.204l0.047,13.813l26.729,0.082v-4.589
		h-10.862c-9.907-0.584-10.613-3.92-10.613-3.92l0.041-1.023l34.347,0.021L221.959,83.506L221.959,83.506z"/>
	<path fill="#FFFFFF" d="M153.531,60.72c-15.15,0.5-15.4,8.76-15.4,8.76l-12.403-6.673c-2.332-1.585-9.157-2.086-9.157-2.086
		h-12.652v32.37h23.974l0.083-9.178l11.653,6.758c3.663,2.085,9.822,2.42,9.822,2.42h12.736V60.72H153.531z M152.257,88.033
		c0,0-5.369-0.25-9.303-2.191L123.225,74.83v13.203h-13.11V64.757h4.869c0,0,6.618,0.313,9.739,2.002l19.792,11.199v-9.071
		c0,0,0.936-4.13,10.3-4.13h2.686l0.25,23.276C157.751,88.033,152.257,88.033,152.257,88.033z"/>
</g>
<g>
	<path fill="#FFFFFF" d="M36.653,48.323v-0.979c0,0,0.461-2.643-5.136-2.741h-6.583c0,0-4.674-0.261-4.707,2.872v1.793
		c0,0,0.131,2.415,3.984,2.349c0,0,7.044,0.001,8.163,0.262c0,0,0.659-0.033,0.659,0.555l-0.008,0.587c0,0,0.05,0.637-1.284,0.71
		H25.47c0,0-0.963-0.049-1.062-0.808l-0.025-0.562l-4.049,0.024v1.834c0,0,0.296,1.138,1.21,1.518c0,0,0.703,0.454,2.752,0.454
		h8.345c0,0,2.321-0.062,3.185-0.685c0,0,1.222-0.943,1.222-1.946v-1.627c0,0,0-0.944-0.863-1.922c0,0-0.89-0.882-3.506-0.857
		l-7.592-0.146c0,0-0.654-0.171-0.728-0.636l0.025-0.453c0,0,0.099-0.71,1.123-0.759l6.283,0.012c0,0,0.729,0.123,0.79,0.637
		l0.037,0.5L36.653,48.323z"/>
	<path fill="#FFFFFF" d="M39.665,44.554h4.518v7.66c0,0,0.296,1.126,1.728,1.151h5.407c0,0,2.05,0.097,2.123-1.346v-7.464h4.396
		v7.734c0,0,0.024,1.958-1.408,2.864c0,0-1.16,1.052-3.802,1.076h-7.752c0,0-2.987-0.22-3.678-1.052c0,0-1.358-0.857-1.531-2.937
		v-7.686H39.665z"/>
	<path fill="#FFFFFF" d="M77.389,49.792v-1.689c-0.099-3.818-3.827-3.524-3.827-3.524h-13.11v11.577h4.444v-3.059h8.962
		C77.536,53.096,77.389,49.792,77.389,49.792 M71.792,50.216h-6.946v-2.643v-0.064h6.814c0,0,1.087-0.049,1.268,0.734v1.109
		C72.928,49.352,73.043,50.152,71.792,50.216"/>
	<path fill="#FFFFFF" d="M96.941,49.822v-1.689c-0.098-3.819-3.826-3.525-3.826-3.525h-13.11v11.576h4.444v-3.059h8.962
		C97.09,53.126,96.941,49.822,96.941,49.822 M91.346,50.247H84.4v-2.643v-0.066h6.815c0,0,1.086-0.048,1.266,0.735v1.109
		C92.481,49.382,92.596,50.182,91.346,50.247"/>
	<polygon fill="#FFFFFF" points="99.559,44.579 104.002,44.579 104.002,53.145 113.755,53.145 113.755,56.228 99.559,56.228 	"/>
	<polygon fill="#FFFFFF" points="130.987,44.579 115.927,44.579 115.927,56.18 131.16,56.18 131.16,53.316 120.347,53.316 
		120.372,51.627 130.468,51.627 130.468,49.033 120.321,49.033 120.321,47.491 131.012,47.466 	"/>
	<polygon fill="#FFFFFF" points="175.118,44.603 160.058,44.603 160.058,56.204 175.291,56.204 175.291,53.34 164.477,53.34 
		164.502,51.652 174.599,51.652 174.599,49.058 164.452,49.058 164.452,47.515 175.143,47.491 	"/>
	<polygon fill="#FFFFFF" points="133.826,56.18 133.826,44.554 141.628,44.554 145.751,52.043 149.652,44.554 157.33,44.554 
		157.33,56.18 152.86,56.18 152.86,47.418 147.528,56.18 144.048,56.18 138.517,47.565 138.517,56.18 	"/>
	<polygon fill="#FFFFFF" points="177.896,56.18 177.896,44.579 185.031,44.579 192.783,53.242 192.783,44.579 197.326,44.579 
		197.326,56.18 189.894,56.18 182.414,47.834 182.414,56.18 	"/>
	<polygon fill="#FFFFFF" points="216.484,44.579 216.484,47.589 210.509,47.589 210.509,56.18 205.769,56.18 205.769,47.589 
		199.597,47.589 199.597,44.579 	"/>
	<path fill="#FFFFFF" d="M220.649,56.468c0,0,2.813-1.969,4.012-4.511l6.082-25.59l-64.66,9.842c0,0-2.275,0.246-3.558-0.697
		L119.584,6.231c0,0-0.993-1.025-2.772,0L74.195,35.334c0,0-1.509,1.53-4.709,0.793L4.226,25.915l6.624,26.069
		c0,0,1.796,2.815,4.525,4.504L11.86,36.086l60.854,5.249L117.5,17.631l44.446,23.786l62.715-5.29L220.649,56.468z"/>
	<path fill="#FFFFFF" d="M232.975,25l-1.433,1.094l-5.461,23.95c0,0-0.937,3.115-1.765,4.045c0,0-2.04,2.789-3.697,3.663
		l-0.44,1.914c0,0,3.695-1.749,5.13-4.538c0,0,0.992-2.186,1.709-5.085L232.975,25z"/>
	<path fill="#FFFFFF" d="M2.025,24.584l1.433,1.094l5.461,23.949c0,0,1.311,4.012,2.138,4.941c0,0,2.719,2.856,4.607,3.106
		l0.125,1.575c0,0-4.665-1.75-6.099-4.538c0,0-0.993-2.187-1.709-5.086L2.025,24.584z"/>
	<polygon fill="#FFFFFF" points="117.915,4.372 117.903,2.525 71.693,34.076 2.355,23.523 4.226,24.866 72.023,35.334 	"/>
	<polygon fill="#FFFFFF" points="118.7,4.38 118.7,2.524 164.911,34.076 232.975,23.717 231.029,25.074 164.581,35.334 	"/>
</g>
</svg>
